<?xml version="1.0" encoding="utf-8"?>
<svg xmlns="http://www.w3.org/2000/svg" viewBox="0 0 600 500" width="512" height="512">
  <rect width="600" height="500" fill="#000000" rx="32" />
  <g transform="translate(0, 15)">
    <path d="M 225,68 H 415 L 477,130 V 350 L 415,412 H 265" stroke="#FFD400" stroke-width="24" stroke-linejoin="miter" stroke-linecap="square" fill="none" />
    <polygon points="165,150 195,110 245,110 245,240 355,380 355,110 435,110 435,370 405,410 355,410 355,280 245,140 245,410 165,410" fill="#FFFFFF" />
    <g id="github-badge">
      <circle cx="300" cy="190" r="35" fill="#FFD400" stroke="#000000" stroke-width="4" />
      <circle cx="300" cy="192" r="16" fill="#000000" />
      <path d="M 287,184 L 286,171 L 293,178 Z" fill="#000000" />
      <path d="M 313,184 L 314,171 L 307,178 Z" fill="#000000" />
      <path d="M 288,206 C 288,206 290,218 300,218 C 310,218 312,206 312,206 H 288 Z" fill="#000000" />
      <path d="M 288,212 Q 280,214 281,202" stroke="#000000" stroke-width="3.5" stroke-linecap="round" fill="none" />
    </g>
  </g>
</svg>
